<?xml version="1.0" encoding="UTF-8"?>
<svg width="752pt" height="752pt" version="1.1" viewBox="0 0 752 752" xmlns="http://www.w3.org/2000/svg">
 <path d="m591.95 485.4c-17.047-13.262-35.992-22.73-55.883-28.887 16.574-13.734 31.258-30.309 42.621-49.727 0.94531-1.4219 0.94531-2.8398 0.47266-4.2617-0.47266-1.4219-1.8945-2.3672-3.3164-2.8398-20.836-5.6836-42.148-7.1055-62.512-5.2109 8.9961-17.523 15.156-36.938 17.996-57.305 0-1.4219-0.47266-2.8398-1.4219-3.7891-0.94531-0.94531-2.3672-1.4219-3.7891-1.4219-19.891 2.8398-38.832 8.5234-55.883 17.051 1.4219-19.891 0-39.781-5.6836-59.672-0.47266-1.4219-1.4219-2.3672-2.8398-3.3164-1.4219-0.47266-2.8398-0.47266-4.2617 0.47266-12.312 7.1055-23.207 15.629-33.152 25.102-7.5781-31.258-22.258-61.094-44.988-87.613-1.8945-1.8945-5.2109-1.8945-7.1055 0-22.73 26.52-37.414 56.355-44.988 87.613-9.9453-9.4727-20.836-17.996-33.152-25.102-1.4219-0.94531-2.8398-0.94531-4.2617-0.47266-1.4219 0.47266-2.3672 1.8945-2.8398 3.3164-5.2109 19.891-7.1055 40.254-5.6836 59.672-17.051-8.5234-35.992-14.207-55.883-17.051-1.4219 0-2.8398 0.47266-3.7891 1.4219-0.94531 0.94531-1.4219 2.3672-1.4219 3.7891 2.8398 20.363 8.9961 39.781 17.996 57.305-20.836-1.8945-41.676-0.47266-62.512 5.2109-1.4219 0.47266-2.3672 1.4219-3.3164 2.8398 0.007812 1.418 0.007812 3.3125 0.48047 4.2617 11.367 19.418 26.047 35.992 42.621 49.727-19.418 6.1562-38.359 15.625-55.41 28.887-1.418 0.94922-1.8945 2.3672-1.8945 3.7891s0.47266 2.8398 1.8945 3.7891c32.203 24.625 71.039 36.938 109.4 36.938 37.414 0 74.824-11.84 106.55-35.047 31.73 23.207 69.145 35.047 106.55 35.047 38.832 0 77.195-12.312 109.4-36.938 0.94531-0.94531 1.8945-2.3672 1.8945-3.7891s-0.47266-2.8398-1.8945-3.7891zm-24.625-77.668c-11.367 17.996-26.047 33.625-42.621 45.938-17.523-4.2617-35.52-5.6836-53.516-4.7344 14.207-12.785 26.52-27.469 36.465-44.043 19.891-2.3672 39.781-1.8945 59.672 2.8398zm-110.34-109.87c4.2617 18.941 5.2109 37.887 3.3164 56.828-11.367 6.6289-21.785 14.207-31.258 22.73 1.8945-18.469 1.4219-36.938-1.8945-54.934 8.5234-9.4688 18.469-17.52 29.836-24.625zm-30.309 94.719c9.4727-9.9453 19.891-18.941 31.73-26.047 1.8945-0.94531 3.7891-2.3672 5.6836-3.3164 1.8945-0.94531 3.3164-1.8945 5.2109-2.8398 16.102-8.5234 33.625-15.156 52.094-17.996-3.3164 19.418-9.9453 37.414-18.941 53.988-0.94531 1.8945-1.8945 3.3164-2.8398 5.2109-0.94531 1.8945-2.3672 3.7891-3.3164 5.6836-10.891 17.051-25.102 31.73-41.203 43.57-3.3164 2.3672-6.1562 4.2617-9.4727 6.6289-6.1562 3.7891-12.785 7.5781-19.891 10.891-5.2109 2.3672-10.418 4.7344-15.629 6.6289-2.3672 0.94531-4.2617 1.4219-6.6289 1.8945-4.2617 1.4219-8.0508 2.3672-12.312 3.3164-0.47266 0-0.94531 0-1.4219 0.47266-0.47266 0-0.94531 0-1.4219 0.47266 2.3672-2.8398 4.2617-5.6836 6.1562-8.5234l0.47266-0.47266c0.94531-1.4219 1.8945-2.8398 2.8398-4.7344 3.7891-6.1562 7.5781-12.312 10.418-18.469 1.8945-3.7891 3.7891-7.1055 5.2109-10.891 5.6836-15.633 10.418-30.316 13.262-45.469zm-131.66-94.719c11.367 7.1055 21.312 15.156 30.309 24.625-3.3164 18.469-3.7891 36.938-1.8945 54.934-9.4727-8.5234-19.891-16.574-31.258-22.73-2.3672-18.941-1.418-37.883 2.8438-56.828zm-63.934 44.52c18.469 3.3164 35.992 9.4727 52.094 17.996 1.8945 0.94531 3.3164 1.8945 5.2109 2.8398 1.8945 0.94531 3.7891 2.3672 5.6836 3.3164 11.84 7.5781 22.258 16.102 31.73 26.047 2.8398 15.156 7.1055 29.836 13.262 44.043 1.4219 3.7891 3.3164 7.5781 5.2109 10.891 3.3164 6.1562 6.6289 12.312 10.418 18.469 0.94531 1.4219 1.8945 2.8398 2.8398 4.7344l0.47266 0.47266c1.8945 2.8398 4.2617 5.6836 6.1562 8.5234-0.47266 0-0.94531 0-1.4219-0.47266-0.47266 0-0.94531 0-1.4219-0.47266-4.2617-0.94531-8.0508-1.8945-12.312-3.3164-2.3672-0.47266-4.2617-1.4219-6.6289-1.8945-5.2109-1.8945-10.418-4.2617-15.629-6.6289-6.6289-3.3164-13.262-6.6289-19.891-10.891-3.3164-1.8945-6.6289-4.2617-9.4727-6.6289-16.102-11.84-30.309-26.992-41.203-43.57-1.4219-1.8945-2.3672-3.7891-3.3164-5.6836-0.94531-1.8945-1.8945-3.3164-2.8398-5.2109-8.9961-15.152-15.625-33.621-18.941-52.562zm-46.41 65.352c19.891-4.7344 40.254-5.2109 59.672-2.8398 9.9453 16.574 22.258 31.258 36.465 44.043-17.996-0.94531-35.992 0.47266-53.516 4.7344-17.047-12.312-31.258-27.941-42.621-45.938zm176.17 86.191c-58.25 36.938-133.55 35.047-189.91-4.7344 16.574-11.84 35.047-20.363 54.461-25.102 1.8945-0.47266 3.7891-0.94531 5.6836-1.4219 2.3672-0.47266 4.7344-0.94531 6.6289-1.4219 18.469-3.3164 37.414-3.7891 56.355-1.4219 16.102 11.84 34.57 20.836 53.988 26.52 3.7891 0.94531 7.5781 2.3672 11.84 2.8398 1.8945 0.47266 3.7891 0.94531 6.1562 1.4219-1.8945 0.95313-3.7891 1.9023-5.207 3.3203zm20.836-21.309c-0.47266 0.47266-0.94531 0.94531-0.94531 1.4219-0.47266 0.47266-0.94531 1.4219-1.4219 1.8945-0.47266 0.47266-0.94531 1.4219-1.4219 1.8945 0 0 0 0.47266-0.47266 0.47266 0 0.47266-0.47266 0.47266-0.47266 0.94531 0 0.47266-0.47266 0.47266-0.47266 0.94531 0-0.47266-0.47266-0.47266-0.47266-0.94531 0-0.47266-0.47266-0.47266-0.47266-0.94531 0 0 0-0.47266-0.47266-0.47266-0.47266-0.47266-0.94531-1.4219-1.4219-1.8945-0.47266-0.47266-0.94531-1.4219-1.4219-1.8945-0.47266-0.47266-0.94531-0.94531-0.94531-1.4219-0.94531-1.4219-1.8945-2.8398-2.8398-4.2617-1.8945-2.3672-3.3164-4.7344-4.7344-7.1055-10.891-16.574-18.469-34.57-23.68-52.566-0.94531-3.7891-1.8945-7.5781-2.8398-11.367-0.47266-2.8398-1.4219-6.1562-1.8945-8.9961-3.3164-18.941-3.3164-38.359-0.94531-57.305 0.47266-1.8945 0.47266-4.2617 0.94531-6.1562s0.94531-3.7891 0.94531-5.6836c6.1562-29.836 19.418-59.199 40.254-84.77 20.836 25.574 34.098 54.934 40.254 84.77 0.47266 1.8945 0.94531 3.7891 0.94531 5.6836 0.47266 1.8945 0.47266 4.2617 0.94531 6.1562 2.8398 18.941 2.3672 38.359-0.94531 57.305-0.47266 2.8398-0.94531 6.1562-1.8945 8.9961-0.94531 3.7891-1.8945 7.5781-2.8398 11.367-5.2109 18.469-13.262 35.992-23.68 52.566-1.4219 2.3672-3.3164 4.7344-4.7344 7.1055-0.95312 1.8906-1.8984 2.8398-2.8477 4.2617zm9.4727 21.309c-1.8945-0.94531-3.3164-2.3672-5.2109-3.3164 1.8945-0.47266 3.7891-0.94531 6.1562-1.4219 3.7891-0.94531 8.0508-1.8945 11.84-2.8398 19.418-5.6836 37.887-14.68 53.988-26.52 18.469-2.8398 37.887-2.3672 56.355 1.4219 2.3672 0.47266 4.7344 0.94531 6.6289 1.4219 1.8945 0.47266 3.7891 0.94531 5.6836 1.4219 18.941 5.2109 37.414 13.262 54.461 25.102-56.352 39.777-131.65 41.199-189.9 4.7305z" fill="#4980aa"/>
</svg>
