<?xml version="1.0" encoding="UTF-8"?>
<svg width="752pt" height="752pt" version="1.1" viewBox="0 0 752 752" xmlns="http://www.w3.org/2000/svg">
 <defs>
  <clipPath id="a">
   <path d="m139.21 139.21h473.58v473.58h-473.58z"/>
  </clipPath>
 </defs>
 <g clip-path="url(#a)">
  <path d="m597.99 212.79c-0.078126-17.953-6.6797-35.27-18.574-48.715-11.898-13.449-28.281-22.109-46.09-24.375-17.812-2.2617-35.84 2.0273-50.723 12.07-14.883 10.043-25.605 25.152-30.172 42.52-4.5664 17.363-2.6641 35.793 5.3516 51.859 8.0195 16.066 21.605 28.668 38.227 35.457-14.109 23.984-35.895 68.855-37.078 118.8l-0.003906 0.003906c-12.164-5.4922-25.215-8.7461-38.531-9.6133-20.445-0.011719-40.434 6.0625-57.414 17.449-23.742-29.844-59.84-47.18-97.977-47.047-44.945 0-86.473 23.977-108.95 62.895-22.469 38.922-22.469 86.875 0 125.8 22.473 38.922 64 62.898 108.95 62.898 17.535-0.24609 34.953-2.9414 51.746-8.0156 12.309-3.6914 25-5.9688 37.824-6.7852 15.539-0.65234 27.328-0.46484 40.699-0.23828 7.5703 0.11719 15.637 0.25 25.086 0.25v0.003906c22.23-1.4844 44.332-4.5078 66.145-9.0508 15.176-2.707 32.309-5.7656 37.488-5.7656 23.543-0.023437 46.113-9.3867 62.762-26.035 16.645-16.645 26.008-39.219 26.035-62.758 0-2.6133-9.2656-177.38-14.801-281.61zm-73.996 340.8c-14.332 1.1367-28.574 3.2109-42.637 6.207-20.117 4.1484-40.48 7.0195-60.961 8.5938-9.2734 0-17.184-0.13281-24.605-0.24609-13.965-0.23828-26.277-0.42969-42.469 0.25781l0.003906 0.003906c-14.949 0.88281-29.746 3.4805-44.102 7.7461-14.34 4.3906-29.227 6.7578-44.219 7.0352-34.211 0.050782-65.871-18.07-83.156-47.594-17.281-29.52-17.586-66-0.80078-95.805 16.789-29.809 48.141-48.457 82.344-48.98 34.207-0.52344 66.117 17.156 83.809 46.438 2.3125 3.8086 6.2188 6.375 10.633 6.9805 4.418 0.60938 8.8711-0.80859 12.129-3.8516 13.656-12.832 31.695-19.977 50.434-19.98 12.148 0 35.52 10.402 47.359 16.969 3.2109 1.7773 6.9648 2.2969 10.539 1.4648 3.5703-0.83594 6.707-2.9688 8.7969-5.9844 2.0859-3.0156 2.9805-6.6992 2.5078-10.34-9.2188-70.984 41.496-140.83 41.992-141.52 2.1133-2.8516 3.125-6.3711 2.8594-9.9102s-1.793-6.8633-4.3086-9.3672c-2.5117-2.5078-5.8438-4.0273-9.3828-4.2812-11.562-0.84375-22.332-6.1758-30.016-14.859-7.6797-8.6797-11.664-20.02-11.094-31.598 0.56641-11.578 5.6406-22.477 14.137-30.363 8.4922-7.8867 19.738-12.137 31.324-11.844 11.59 0.28906 22.602 5.1016 30.691 13.406 8.0859 8.3047 12.605 19.445 12.59 31.035v0.78516c5.0312 94.715 14.602 275.27 14.801 280.41h-0.003906c-0.015625 15.691-6.2578 30.738-17.355 41.836-11.098 11.102-26.145 17.344-41.84 17.359z" fill="#4980aa"/>
 </g>
 <path d="m318.19 315.52c3.8281 1.707 8.1992 1.707 12.023 0 7.7188-3.4258 75.391-34.809 75.391-80.117-0.019531-13.73-5.4805-26.895-15.191-36.605-9.7109-9.7109-22.875-15.176-36.609-15.191-10.598-0.03125-20.941 3.2383-29.598 9.3516-8.6562-6.1133-19-9.3828-29.598-9.3516-13.734 0.015625-26.898 5.4805-36.609 15.191-9.707 9.7109-15.172 22.875-15.188 36.605 0 45.309 67.66 76.691 75.379 80.117zm-23.582-102.32c7.0234 0 13.625 3.3633 17.758 9.043 2.9141 3.5586 7.2734 5.6211 11.875 5.6211 4.5977 0 8.957-2.0625 11.871-5.6211 4.1211-5.6602 10.691-9.0156 17.691-9.043 5.8906 0 11.535 2.3398 15.699 6.5039 4.1641 4.1641 6.5 9.8086 6.5 15.695 0 18.594-31.758 40.012-51.797 50.199-20.047-10.152-51.797-31.531-51.797-50.199 0-5.8867 2.3398-11.531 6.5-15.695 4.1641-4.1641 9.8125-6.5039 15.699-6.5039z" fill="#4980aa"/>
</svg>
